<?xml version="1.0" standalone="no"?><svg xmlns="http://www.w3.org/2000/svg" viewBox="0 0 1440 320"><path fill="#0099ff" fill-opacity="1" d="M0,224L14.1,229.3C28.2,235,56,245,85,234.7C112.9,224,141,192,169,192C197.6,192,226,224,254,197.3C282.4,171,311,85,339,90.7C367.1,96,395,192,424,224C451.8,256,480,224,508,218.7C536.5,213,565,235,593,250.7C621.2,267,649,277,678,282.7C705.9,288,734,288,762,282.7C790.6,277,819,267,847,272C875.3,277,904,299,932,282.7C960,267,988,213,1016,186.7C1044.7,160,1073,160,1101,160C1129.4,160,1158,160,1186,176C1214.1,192,1242,224,1271,202.7C1298.8,181,1327,107,1355,112C1383.5,117,1412,203,1426,245.3L1440,288L1440,0L1425.9,0C1411.8,0,1384,0,1355,0C1327.1,0,1299,0,1271,0C1242.4,0,1214,0,1186,0C1157.6,0,1129,0,1101,0C1072.9,0,1045,0,1016,0C988.2,0,960,0,932,0C903.5,0,875,0,847,0C818.8,0,791,0,762,0C734.1,0,706,0,678,0C649.4,0,621,0,593,0C564.7,0,536,0,508,0C480,0,452,0,424,0C395.3,0,367,0,339,0C310.6,0,282,0,254,0C225.9,0,198,0,169,0C141.2,0,113,0,85,0C56.5,0,28,0,14,0L0,0Z"></path></svg>